<svg width="180" height="283" viewBox="0 0 180 283" fill="none" xmlns="http://www.w3.org/2000/svg">
<path d="M23.417 263.816L8.47469 70.8357C8.23218 67.7033 9.58616 70.7867 11.5 68.5C13.6826 67.1196 17.1577 65.3503 19.9823 65.4006L151.354 66.1271C154.145 66.1753 156.663 64.2042 158.549 66.5149C160.437 68.8245 165.351 65.5475 165.128 68.6399L152.796 266.681C152.375 272.528 147.915 277.003 142.642 276.871L33.3299 274.172C32.2209 274.145 31.155 273.922 30.159 273.531C26.4827 272.086 23.769 268.36 23.417 263.816Z" fill="#BDD4F8"/>
<ellipse cx="86.5" cy="69" rx="80.5" ry="8" fill="#445670"/>
<path d="M151.106 5.61328L168.426 14.0918L123.589 127.781C121.636 132.735 116.175 134.853 111.392 132.512V132.512C106.609 130.17 104.315 124.257 106.269 119.303L151.106 5.61328Z" fill="#7BB0FF"/>
<path d="M30.1235 262.333L18.5117 124.959C18.3232 122.73 19.2009 120.507 20.9205 118.861C22.6411 117.214 25.0665 116.277 27.575 116.288L150.282 116.859C152.761 116.869 155.132 117.811 156.788 119.441C158.445 121.07 159.266 123.27 159.041 125.475L145.019 263.262C144.595 267.431 140.595 270.658 135.913 270.61L38.8395 269.627C37.8547 269.617 36.9098 269.468 36.0285 269.198C32.7754 268.2 30.3971 265.568 30.1235 262.333Z" fill="#DEB26F"/>
<path d="M68.2794 153H68.2234L65.0594 152.972H64.9754C64.9381 152.767 64.9101 152.505 64.8914 152.188C64.8914 151.871 64.8914 151.553 64.8914 151.236C64.9101 150.919 64.9194 150.62 64.9194 150.34C64.9381 150.06 64.9474 149.855 64.9474 149.724C65.1341 149.649 65.3954 149.593 65.7314 149.556C66.0861 149.519 66.4408 149.5 66.7954 149.5C67.1501 149.5 67.4768 149.519 67.7754 149.556C68.0928 149.575 68.3168 149.612 68.4474 149.668C68.4474 149.687 68.4381 149.845 68.4194 150.144C68.4008 150.424 68.3821 150.751 68.3634 151.124C68.3448 151.497 68.3261 151.861 68.3074 152.216C68.2888 152.571 68.2794 152.813 68.2794 152.944V152.972V153ZM73.5841 153H73.5281L70.3641 152.972H70.2801C70.2428 152.767 70.2148 152.505 70.1961 152.188C70.1961 151.871 70.1961 151.553 70.1961 151.236C70.2148 150.919 70.2241 150.62 70.2241 150.34C70.2428 150.06 70.2521 149.855 70.2521 149.724C70.4388 149.649 70.7001 149.593 71.0361 149.556C71.3908 149.519 71.7455 149.5 72.1001 149.5C72.4548 149.5 72.7815 149.519 73.0801 149.556C73.3975 149.575 73.6215 149.612 73.7521 149.668C73.7521 149.687 73.7428 149.845 73.7241 150.144C73.7055 150.424 73.6868 150.751 73.6681 151.124C73.6495 151.497 73.6308 151.861 73.6121 152.216C73.5935 152.571 73.5841 152.813 73.5841 152.944V152.972V153ZM78.8888 153H78.8328L75.6688 152.972H75.5848C75.5475 152.767 75.5195 152.505 75.5008 152.188C75.5008 151.871 75.5008 151.553 75.5008 151.236C75.5195 150.919 75.5288 150.62 75.5288 150.34C75.5475 150.06 75.5568 149.855 75.5568 149.724C75.7435 149.649 76.0048 149.593 76.3408 149.556C76.6955 149.519 77.0501 149.5 77.4048 149.5C77.7595 149.5 78.0861 149.519 78.3848 149.556C78.7021 149.575 78.9261 149.612 79.0568 149.668C79.0568 149.687 79.0475 149.845 79.0288 150.144C79.0101 150.424 78.9915 150.751 78.9728 151.124C78.9541 151.497 78.9355 151.861 78.9168 152.216C78.8981 152.571 78.8888 152.813 78.8888 152.944V152.972V153ZM91.5855 140.596C91.9588 141.399 92.1455 142.304 92.1455 143.312C91.5482 143.405 90.8855 143.461 90.1575 143.48C89.4482 143.499 88.7762 143.443 88.1415 143.312C88.1975 143.088 88.1695 142.864 88.0575 142.64C87.9642 142.416 87.8148 142.22 87.6095 142.052C87.4228 141.884 87.1988 141.763 86.9375 141.688C86.6948 141.595 86.4522 141.557 86.2095 141.576C85.7802 141.651 85.4535 141.819 85.2295 142.08C85.0242 142.323 84.9215 142.593 84.9215 142.892C84.9215 143.191 85.0335 143.489 85.2575 143.788C85.4815 144.087 85.8082 144.311 86.2375 144.46C87.2828 144.609 88.2628 144.815 89.1775 145.076C90.0922 145.319 90.7642 145.72 91.1935 146.28C91.6042 146.952 91.8562 147.643 91.9495 148.352C92.0428 149.043 91.9122 149.901 91.5575 150.928C91.1282 151.843 90.4562 152.496 89.5415 152.888C88.6268 153.28 87.6282 153.467 86.5455 153.448C85.5935 153.485 84.7348 153.401 83.9695 153.196C83.2042 152.991 82.5415 152.683 81.9815 152.272C81.4402 151.861 81.0108 151.357 80.6935 150.76C80.3948 150.163 80.2455 149.491 80.2455 148.744V148.66V148.604C80.8615 148.529 81.5615 148.511 82.3455 148.548C83.1295 148.567 83.8108 148.576 84.3895 148.576C84.4082 149.005 84.6042 149.36 84.9775 149.64C85.3695 149.901 85.7802 150.06 86.2095 150.116C86.6388 150.153 87.0308 150.069 87.3855 149.864C87.7402 149.659 87.9082 149.285 87.8895 148.744C87.9455 148.296 87.8428 147.96 87.5815 147.736C87.3202 147.512 86.9748 147.344 86.5455 147.232C86.1162 147.101 85.6308 146.989 85.0895 146.896C84.5482 146.803 84.0162 146.644 83.4935 146.42C82.4482 146.065 81.6828 145.515 81.1975 144.768C80.7308 144.003 80.5068 143.219 80.5255 142.416C80.5628 141.595 80.8242 140.839 81.3095 140.148C81.8135 139.457 82.5228 138.991 83.4375 138.748C83.7922 138.655 84.2215 138.58 84.7255 138.524C85.2482 138.468 85.7988 138.44 86.3775 138.44C86.9562 138.44 87.5348 138.477 88.1135 138.552C88.6922 138.608 89.2242 138.692 89.7095 138.804C90.5868 139.177 91.2122 139.775 91.5855 140.596ZM93.551 141.072C93.663 140.717 93.747 140.437 93.803 140.232C93.9336 139.952 94.139 139.709 94.419 139.504C94.7176 139.299 95.0536 139.131 95.427 139C95.819 138.851 96.2296 138.748 96.659 138.692C97.107 138.636 97.555 138.608 98.003 138.608C98.3763 138.645 98.731 138.655 99.067 138.636C99.4216 138.599 99.795 138.599 100.187 138.636C100.784 138.673 101.354 138.795 101.895 139C102.436 139.187 102.903 139.467 103.295 139.84C103.556 140.008 103.762 140.279 103.911 140.652C104.06 141.025 104.172 141.464 104.247 141.968C104.322 142.453 104.368 142.995 104.387 143.592C104.406 144.171 104.424 144.768 104.443 145.384C104.424 145.925 104.396 146.541 104.359 147.232C104.34 147.923 104.294 148.585 104.219 149.22C104.163 149.855 104.079 150.424 103.967 150.928C103.874 151.432 103.734 151.777 103.547 151.964C103.23 152.412 102.81 152.729 102.287 152.916C101.783 153.103 101.232 153.215 100.635 153.252C100.038 153.308 99.4216 153.308 98.787 153.252C98.1523 153.215 97.5736 153.196 97.051 153.196C96.099 153.028 95.2963 152.617 94.643 151.964C94.139 151.516 93.7936 150.956 93.607 150.284C93.4203 149.612 93.3083 148.912 93.271 148.184C93.2336 147.437 93.2243 146.691 93.243 145.944C93.2803 145.197 93.271 144.516 93.215 143.9C93.215 143.564 93.2243 143.237 93.243 142.92C93.2616 142.584 93.299 142.239 93.355 141.884C93.3736 141.679 93.439 141.408 93.551 141.072ZM98.255 142.92C97.863 143.032 97.5456 143.237 97.303 143.536C97.191 143.611 97.107 143.797 97.051 144.096C96.9763 144.693 96.939 145.291 96.939 145.888C96.939 146.467 96.9203 147.083 96.883 147.736C96.8643 148.165 96.9763 148.501 97.219 148.744C97.4616 148.968 97.751 149.127 98.087 149.22C98.4416 149.295 98.8056 149.313 99.179 149.276C99.5523 149.22 99.8603 149.127 100.103 148.996C100.42 148.847 100.635 148.539 100.747 148.072C100.822 147.475 100.878 146.877 100.915 146.28C100.971 145.664 100.943 145.085 100.831 144.544C100.738 143.891 100.467 143.415 100.019 143.116C99.571 142.817 98.983 142.752 98.255 142.92ZM109.238 153.252C109.219 153.383 109.2 153.495 109.182 153.588L108.958 154.708C108.92 154.895 108.883 155.072 108.846 155.24C108.808 155.427 108.771 155.613 108.734 155.8C108.64 155.763 108.426 155.744 108.09 155.744C107.772 155.763 107.343 155.763 106.802 155.744C106.764 155.707 106.764 155.595 106.802 155.408C106.858 155.221 106.923 154.988 106.998 154.708C107.072 154.447 107.138 154.167 107.194 153.868C107.268 153.569 107.324 153.289 107.362 153.028L106.046 152.916C106.008 152.916 105.98 152.907 105.962 152.888C105.962 152.869 105.962 152.832 105.962 152.776C105.962 152.72 105.962 152.589 105.962 152.384C105.98 152.179 105.99 151.871 105.99 151.46C106.008 151.031 106.036 150.433 106.074 149.668V149.64H106.102C106.587 149.491 107.1 149.453 107.642 149.528C108.202 149.584 108.808 149.631 109.462 149.668H109.49L109.378 152.888H109.322C109.322 152.907 109.312 152.925 109.294 152.944C109.294 152.944 109.294 152.953 109.294 152.972C109.294 153.047 109.275 153.14 109.238 153.252ZM65.5594 166.26C65.8207 166.279 65.9514 166.297 65.9514 166.316V166.624C65.9701 166.997 65.9794 167.287 65.9794 167.492C65.9981 167.679 66.0074 167.856 66.0074 168.024C66.0261 168.173 66.0354 168.341 66.0354 168.528C66.0541 168.696 66.0634 168.948 66.0634 169.284C66.0634 169.601 66.0634 170.031 66.0634 170.572C66.0634 171.113 66.0541 171.823 66.0354 172.7C66.0727 172.532 66.2781 172.383 66.6514 172.252C67.0247 172.121 67.4821 172.037 68.0234 172C68.5647 171.944 69.1341 171.944 69.7314 172C70.3474 172.037 70.9074 172.149 71.4114 172.336C71.8221 172.485 72.1674 172.747 72.4474 173.12C72.7461 173.475 72.9794 173.913 73.1474 174.436C73.3341 174.94 73.4647 175.5 73.5394 176.116C73.6327 176.732 73.6794 177.367 73.6794 178.02C73.6421 178.953 73.5767 179.877 73.4834 180.792C73.3901 181.707 73.1847 182.537 72.8674 183.284C72.5687 184.012 72.1114 184.619 71.4954 185.104C70.8794 185.571 70.0394 185.841 68.9754 185.916C68.4527 185.991 67.9581 185.953 67.4914 185.804C67.0247 185.636 66.6514 185.272 66.3714 184.712C66.3154 184.6 66.2594 184.572 66.2034 184.628C66.1661 184.665 66.1287 184.731 66.0914 184.824C66.0914 185.029 66.0821 185.188 66.0634 185.3C66.0634 185.412 66.0634 185.561 66.0634 185.748C66.0634 185.841 66.0541 185.907 66.0354 185.944C65.4754 186.019 64.8501 186.037 64.1594 186C63.4687 185.981 62.8341 185.972 62.2554 185.972C62.2181 184.628 62.1994 183.237 62.1994 181.8C62.2181 180.344 62.2367 178.869 62.2554 177.376C62.2927 175.864 62.3301 174.333 62.3674 172.784C62.4047 171.235 62.4234 169.685 62.4234 168.136V166.288C62.7221 166.232 63.0767 166.204 63.4874 166.204C63.8981 166.185 64.2807 166.185 64.6354 166.204C65.0087 166.204 65.3167 166.223 65.5594 166.26ZM70.4594 177.992C70.4407 177.712 70.3847 177.441 70.2914 177.18C70.1981 176.527 69.9181 176.032 69.4514 175.696C69.0034 175.36 68.3967 175.192 67.6314 175.192C67.2394 175.192 66.9221 175.229 66.6794 175.304C66.4554 175.36 66.2874 175.5 66.1754 175.724C66.0634 175.948 65.9887 176.275 65.9514 176.704C65.9327 177.115 65.9234 177.684 65.9234 178.412C65.9234 179.009 65.9327 179.56 65.9514 180.064C65.9887 180.549 66.0727 180.969 66.2034 181.324C66.3527 181.679 66.5581 181.959 66.8194 182.164C67.0807 182.369 67.4541 182.472 67.9394 182.472C68.3314 182.472 68.6861 182.369 69.0034 182.164C69.3207 181.959 69.5914 181.688 69.8154 181.352C70.0394 180.997 70.2074 180.605 70.3194 180.176C70.4314 179.728 70.4874 179.271 70.4874 178.804C70.4874 178.543 70.4781 178.272 70.4594 177.992ZM75.2717 174.072C75.3837 173.717 75.4677 173.437 75.5237 173.232C75.6543 172.952 75.8597 172.709 76.1397 172.504C76.4383 172.299 76.7743 172.131 77.1477 172C77.5397 171.851 77.9503 171.748 78.3797 171.692C78.8277 171.636 79.2757 171.608 79.7237 171.608C80.097 171.645 80.4517 171.655 80.7877 171.636C81.1423 171.599 81.5157 171.599 81.9077 171.636C82.505 171.673 83.0743 171.795 83.6157 172C84.157 172.187 84.6237 172.467 85.0157 172.84C85.277 173.008 85.4823 173.279 85.6317 173.652C85.781 174.025 85.893 174.464 85.9677 174.968C86.0423 175.453 86.089 175.995 86.1077 176.592C86.1263 177.171 86.145 177.768 86.1637 178.384C86.145 178.925 86.117 179.541 86.0797 180.232C86.061 180.923 86.0143 181.585 85.9397 182.22C85.8837 182.855 85.7997 183.424 85.6877 183.928C85.5943 184.432 85.4543 184.777 85.2677 184.964C84.9503 185.412 84.5303 185.729 84.0077 185.916C83.5037 186.103 82.953 186.215 82.3557 186.252C81.7583 186.308 81.1423 186.308 80.5077 186.252C79.873 186.215 79.2943 186.196 78.7717 186.196C77.8197 186.028 77.017 185.617 76.3637 184.964C75.8597 184.516 75.5143 183.956 75.3277 183.284C75.141 182.612 75.029 181.912 74.9917 181.184C74.9543 180.437 74.945 179.691 74.9637 178.944C75.001 178.197 74.9917 177.516 74.9357 176.9C74.9357 176.564 74.945 176.237 74.9637 175.92C74.9823 175.584 75.0197 175.239 75.0757 174.884C75.0943 174.679 75.1597 174.408 75.2717 174.072ZM79.9757 175.92C79.5837 176.032 79.2663 176.237 79.0237 176.536C78.9117 176.611 78.8277 176.797 78.7717 177.096C78.697 177.693 78.6597 178.291 78.6597 178.888C78.6597 179.467 78.641 180.083 78.6037 180.736C78.585 181.165 78.697 181.501 78.9397 181.744C79.1823 181.968 79.4717 182.127 79.8077 182.22C80.1623 182.295 80.5263 182.313 80.8997 182.276C81.273 182.22 81.581 182.127 81.8237 181.996C82.141 181.847 82.3557 181.539 82.4677 181.072C82.5423 180.475 82.5983 179.877 82.6357 179.28C82.6917 178.664 82.6637 178.085 82.5517 177.544C82.4583 176.891 82.1877 176.415 81.7397 176.116C81.2917 175.817 80.7037 175.752 79.9757 175.92ZM91.0985 166.26C91.3598 166.279 91.4905 166.297 91.4905 166.316V166.624C91.5091 166.997 91.5185 167.287 91.5185 167.492C91.5371 167.679 91.5465 167.856 91.5465 168.024C91.5651 168.173 91.5745 168.341 91.5745 168.528C91.5931 168.696 91.6025 168.948 91.6025 169.284C91.6025 169.601 91.6025 170.031 91.6025 170.572C91.6025 171.113 91.5931 171.823 91.5745 172.7C91.6118 172.532 91.8171 172.383 92.1905 172.252C92.5638 172.121 93.0211 172.037 93.5625 172C94.1038 171.944 94.6731 171.944 95.2705 172C95.8865 172.037 96.4465 172.149 96.9505 172.336C97.3611 172.485 97.7065 172.747 97.9865 173.12C98.2851 173.475 98.5185 173.913 98.6865 174.436C98.8731 174.94 99.0038 175.5 99.0785 176.116C99.1718 176.732 99.2185 177.367 99.2185 178.02C99.1811 178.953 99.1158 179.877 99.0225 180.792C98.9291 181.707 98.7238 182.537 98.4065 183.284C98.1078 184.012 97.6505 184.619 97.0345 185.104C96.4185 185.571 95.5785 185.841 94.5145 185.916C93.9918 185.991 93.4971 185.953 93.0305 185.804C92.5638 185.636 92.1905 185.272 91.9105 184.712C91.8545 184.6 91.7985 184.572 91.7425 184.628C91.7051 184.665 91.6678 184.731 91.6305 184.824C91.6305 185.029 91.6211 185.188 91.6025 185.3C91.6025 185.412 91.6025 185.561 91.6025 185.748C91.6025 185.841 91.5931 185.907 91.5745 185.944C91.0145 186.019 90.3891 186.037 89.6985 186C89.0078 185.981 88.3731 185.972 87.7945 185.972C87.7571 184.628 87.7385 183.237 87.7385 181.8C87.7571 180.344 87.7758 178.869 87.7945 177.376C87.8318 175.864 87.8691 174.333 87.9065 172.784C87.9438 171.235 87.9625 169.685 87.9625 168.136V166.288C88.2611 166.232 88.6158 166.204 89.0265 166.204C89.4371 166.185 89.8198 166.185 90.1745 166.204C90.5478 166.204 90.8558 166.223 91.0985 166.26ZM95.9985 177.992C95.9798 177.712 95.9238 177.441 95.8305 177.18C95.7371 176.527 95.4571 176.032 94.9905 175.696C94.5425 175.36 93.9358 175.192 93.1705 175.192C92.7785 175.192 92.4611 175.229 92.2185 175.304C91.9945 175.36 91.8265 175.5 91.7145 175.724C91.6025 175.948 91.5278 176.275 91.4905 176.704C91.4718 177.115 91.4625 177.684 91.4625 178.412C91.4625 179.009 91.4718 179.56 91.4905 180.064C91.5278 180.549 91.6118 180.969 91.7425 181.324C91.8918 181.679 92.0971 181.959 92.3585 182.164C92.6198 182.369 92.9931 182.472 93.4785 182.472C93.8705 182.472 94.2251 182.369 94.5425 182.164C94.8598 181.959 95.1305 181.688 95.3545 181.352C95.5785 180.997 95.7465 180.605 95.8585 180.176C95.9705 179.728 96.0265 179.271 96.0265 178.804C96.0265 178.543 96.0171 178.272 95.9985 177.992ZM110.499 171.972C110.965 171.991 111.497 172.019 112.095 172.056C112.113 172.168 112.123 172.28 112.123 172.392C112.141 172.504 112.151 172.616 112.151 172.728V173.008C112.095 175.024 112.104 177.012 112.179 178.972C112.253 180.913 112.225 182.883 112.095 184.88C112.095 185.123 112.085 185.365 112.067 185.608C112.067 185.851 111.955 185.991 111.731 186.028H111.395C111.096 186.028 110.788 186.019 110.471 186C110.172 185.963 109.873 185.944 109.575 185.944C109.369 185.944 109.164 185.963 108.959 186C108.772 186.019 108.576 186.028 108.371 186.028C108.24 185.991 108.147 185.916 108.091 185.804C108.053 185.692 108.035 185.561 108.035 185.412C108.035 185.207 108.053 185.039 108.091 184.908C108.128 184.777 108.147 184.619 108.147 184.432C107.699 184.88 107.129 185.263 106.439 185.58C105.767 185.897 105.104 186.056 104.451 186.056C103.723 186.056 103.097 185.804 102.575 185.3C102.071 184.796 101.651 184.171 101.315 183.424C100.979 182.677 100.727 181.865 100.559 180.988C100.409 180.111 100.335 179.299 100.335 178.552C100.335 177.619 100.456 176.76 100.699 175.976C100.941 175.192 101.268 174.52 101.679 173.96C102.108 173.381 102.612 172.933 103.191 172.616C103.769 172.28 104.385 172.103 105.039 172.084C105.375 172.084 105.683 172.093 105.963 172.112C106.261 172.112 106.532 172.159 106.775 172.252C107.017 172.327 107.232 172.457 107.419 172.644C107.605 172.812 107.764 173.055 107.895 173.372C107.876 173.073 107.885 172.821 107.923 172.616C107.979 172.392 108.007 172.168 108.007 171.944C108.007 171.925 108.063 171.916 108.175 171.916C108.305 171.897 108.445 171.897 108.595 171.916C108.744 171.916 108.893 171.916 109.043 171.916C109.192 171.916 109.295 171.916 109.351 171.916C109.668 171.935 110.051 171.953 110.499 171.972ZM104.731 176.396C104.301 176.751 104.04 177.161 103.947 177.628C103.872 177.871 103.825 178.123 103.807 178.384C103.788 178.627 103.779 178.869 103.779 179.112C103.779 179.952 103.993 180.671 104.423 181.268C104.871 181.847 105.487 182.136 106.271 182.136C106.737 182.136 107.083 182.061 107.307 181.912C107.549 181.744 107.717 181.52 107.811 181.24C107.923 180.941 107.979 180.587 107.979 180.176C107.997 179.747 108.007 179.271 108.007 178.748C108.007 178.095 107.997 177.581 107.979 177.208C107.979 176.816 107.932 176.517 107.839 176.312C107.764 176.107 107.624 175.976 107.419 175.92C107.232 175.864 106.943 175.836 106.551 175.836C105.785 175.836 105.179 176.023 104.731 176.396ZM65.6276 204.972C66.0943 204.991 66.6263 205.019 67.2236 205.056C67.2423 205.168 67.2516 205.28 67.2516 205.392C67.2703 205.504 67.2796 205.616 67.2796 205.728V206.008C67.2236 208.024 67.233 210.012 67.3076 211.972C67.3823 213.913 67.3543 215.883 67.2236 217.88C67.2236 218.123 67.2143 218.365 67.1956 218.608C67.1956 218.851 67.0836 218.991 66.8596 219.028H66.5236C66.225 219.028 65.917 219.019 65.5996 219C65.301 218.963 65.0023 218.944 64.7036 218.944C64.4983 218.944 64.293 218.963 64.0876 219C63.901 219.019 63.705 219.028 63.4996 219.028C63.369 218.991 63.2756 218.916 63.2196 218.804C63.1823 218.692 63.1636 218.561 63.1636 218.412C63.1636 218.207 63.1823 218.039 63.2196 217.908C63.257 217.777 63.2756 217.619 63.2756 217.432C62.8276 217.88 62.2583 218.263 61.5676 218.58C60.8956 218.897 60.233 219.056 59.5796 219.056C58.8516 219.056 58.2263 218.804 57.7036 218.3C57.1996 217.796 56.7796 217.171 56.4436 216.424C56.1076 215.677 55.8556 214.865 55.6876 213.988C55.5383 213.111 55.4636 212.299 55.4636 211.552C55.4636 210.619 55.585 209.76 55.8276 208.976C56.0703 208.192 56.397 207.52 56.8076 206.96C57.237 206.381 57.741 205.933 58.3196 205.616C58.8983 205.28 59.5143 205.103 60.1676 205.084C60.5036 205.084 60.8116 205.093 61.0916 205.112C61.3903 205.112 61.661 205.159 61.9036 205.252C62.1463 205.327 62.361 205.457 62.5476 205.644C62.7343 205.812 62.893 206.055 63.0236 206.372C63.005 206.073 63.0143 205.821 63.0516 205.616C63.1076 205.392 63.1356 205.168 63.1356 204.944C63.1356 204.925 63.1916 204.916 63.3036 204.916C63.4343 204.897 63.5743 204.897 63.7236 204.916C63.873 204.916 64.0223 204.916 64.1716 204.916C64.321 204.916 64.4236 204.916 64.4796 204.916C64.797 204.935 65.1796 204.953 65.6276 204.972ZM59.8596 209.396C59.4303 209.751 59.169 210.161 59.0756 210.628C59.001 210.871 58.9543 211.123 58.9356 211.384C58.917 211.627 58.9076 211.869 58.9076 212.112C58.9076 212.952 59.1223 213.671 59.5516 214.268C59.9996 214.847 60.6156 215.136 61.3996 215.136C61.8663 215.136 62.2116 215.061 62.4356 214.912C62.6783 214.744 62.8463 214.52 62.9396 214.24C63.0516 213.941 63.1076 213.587 63.1076 213.176C63.1263 212.747 63.1356 212.271 63.1356 211.748C63.1356 211.095 63.1263 210.581 63.1076 210.208C63.1076 209.816 63.061 209.517 62.9676 209.312C62.893 209.107 62.753 208.976 62.5476 208.92C62.361 208.864 62.0716 208.836 61.6796 208.836C60.9143 208.836 60.3076 209.023 59.8596 209.396ZM74.296 209.032V215.136V218.888C73.9787 218.851 73.6614 218.841 73.344 218.86C73.0267 218.879 72.7094 218.907 72.392 218.944C72.0747 218.963 71.7667 218.981 71.468 219C71.188 219.019 70.9267 219.009 70.684 218.972C70.6467 218.748 70.6187 218.384 70.6 217.88C70.6 217.357 70.5907 216.779 70.572 216.144C70.572 215.491 70.572 214.809 70.572 214.1C70.572 213.391 70.572 212.709 70.572 212.056C70.5907 211.384 70.6 210.787 70.6 210.264C70.6187 209.741 70.628 209.34 70.628 209.06C70.3294 209.06 70.012 209.06 69.676 209.06C69.3587 209.06 69.0134 209.069 68.64 209.088L68.556 205.672C68.948 205.672 69.3027 205.672 69.62 205.672C69.956 205.672 70.2734 205.681 70.572 205.7C70.5347 205.233 70.544 204.729 70.6 204.188C70.656 203.647 70.7867 203.124 70.992 202.62C71.216 202.097 71.524 201.631 71.916 201.22C72.308 200.791 72.8214 200.473 73.456 200.268C74.24 200.007 75.0894 199.848 76.004 199.792C76.9374 199.717 77.8427 199.699 78.72 199.736C78.8134 200.016 78.8694 200.324 78.888 200.66C78.9254 200.996 78.9347 201.332 78.916 201.668C78.8974 202.004 78.8694 202.331 78.832 202.648C78.7947 202.965 78.7574 203.255 78.72 203.516C78.496 203.497 78.2347 203.497 77.936 203.516C77.656 203.535 77.3574 203.563 77.04 203.6C76.7227 203.637 76.4054 203.684 76.088 203.74C75.7707 203.777 75.4814 203.815 75.22 203.852C74.7907 203.927 74.52 204.151 74.408 204.524C74.3147 204.879 74.3147 205.289 74.408 205.756H78.692C78.6547 205.961 78.6454 206.167 78.664 206.372C78.6827 206.559 78.6827 206.783 78.664 207.044C78.664 207.249 78.664 207.417 78.664 207.548C78.664 207.66 78.6547 207.781 78.636 207.912C78.636 208.043 78.6267 208.211 78.608 208.416C78.5894 208.621 78.5614 208.901 78.524 209.256C77.572 209.2 76.7694 209.153 76.116 209.116C75.4814 209.079 74.8747 209.051 74.296 209.032ZM83.9254 199.876C84.2428 199.895 84.5601 199.885 84.8774 199.848V203.6C84.8774 203.843 84.8774 204.095 84.8774 204.356C84.8961 204.617 84.9054 204.888 84.9054 205.168C85.4841 205.149 86.0908 205.121 86.7254 205.084C87.3788 205.047 88.1814 205 89.1334 204.944C89.2641 205.093 89.3388 205.317 89.3574 205.616C89.3761 205.896 89.3761 206.204 89.3574 206.54C89.3388 206.876 89.3108 207.221 89.2734 207.576C89.2548 207.912 89.2641 208.201 89.3014 208.444H84.9614C84.9614 209.452 84.9614 210.441 84.9614 211.412C84.9614 212.364 84.9708 213.26 84.9894 214.1C85.1761 214.361 85.4468 214.567 85.8014 214.716C86.1561 214.865 86.5388 214.987 86.9494 215.08C87.3601 215.155 87.7708 215.201 88.1814 215.22C88.6108 215.239 88.9841 215.239 89.3014 215.22C89.3388 215.481 89.3761 215.771 89.4134 216.088C89.4508 216.405 89.4788 216.732 89.4974 217.068C89.5161 217.404 89.5068 217.74 89.4694 218.076C89.4508 218.412 89.3948 218.72 89.3014 219C88.5548 219.037 87.7801 219.037 86.9774 219C86.1748 218.944 85.4188 218.832 84.7094 218.664C84.0001 218.496 83.3654 218.244 82.8054 217.908C82.2641 217.572 81.8721 217.115 81.6294 216.536C81.3868 215.099 81.2468 213.745 81.2094 212.476C81.1721 211.188 81.1628 209.863 81.1814 208.5C80.8828 208.519 80.5654 208.528 80.2294 208.528C79.9121 208.528 79.5574 208.528 79.1654 208.528L79.2494 205.112C79.6228 205.131 79.9681 205.14 80.2854 205.14C80.6214 205.14 80.9388 205.14 81.2374 205.14C81.2374 204.729 81.2281 204.291 81.2094 203.824C81.1908 203.339 81.1814 202.853 81.1814 202.368C81.1814 201.883 81.1814 201.416 81.1814 200.968C81.2001 200.52 81.2281 200.119 81.2654 199.764C81.5081 199.727 81.7694 199.717 82.0494 199.736C82.3481 199.755 82.6561 199.783 82.9734 199.82C83.2908 199.839 83.6081 199.857 83.9254 199.876ZM94.9495 212.056C94.5389 212.037 94.2402 212.009 94.0535 211.972V212.476C94.0722 213.036 94.0909 213.493 94.1095 213.848C94.1469 214.203 94.2682 214.548 94.4735 214.884C94.6975 215.313 95.0149 215.631 95.4255 215.836C95.8362 216.041 96.2375 216.107 96.6295 216.032C97.0215 215.957 97.3482 215.733 97.6095 215.36C97.8895 214.968 98.0109 214.389 97.9735 213.624C98.1602 213.643 98.4122 213.652 98.7295 213.652C99.0469 213.633 99.3735 213.615 99.7095 213.596C100.064 213.577 100.4 213.577 100.718 213.596C101.035 213.596 101.296 213.624 101.502 213.68C101.464 214.165 101.427 214.641 101.39 215.108C101.352 215.575 101.306 216.013 101.25 216.424C101.194 216.816 101.119 217.161 101.026 217.46C100.951 217.74 100.848 217.936 100.718 218.048C100.4 218.496 99.9895 218.813 99.4855 219C98.9815 219.187 98.4309 219.299 97.8335 219.336C97.2362 219.373 96.6202 219.373 95.9855 219.336C95.3695 219.299 94.8002 219.28 94.2775 219.28C93.7549 219.205 93.2695 219.037 92.8215 218.776C92.3175 218.421 91.8975 217.964 91.5615 217.404C91.2255 216.825 90.9549 216.2 90.7495 215.528C90.5442 214.837 90.4042 214.109 90.3295 213.344C90.2549 212.579 90.2362 211.813 90.2735 211.048C90.3295 210.357 90.3855 209.695 90.4415 209.06C90.5162 208.407 90.6655 207.772 90.8895 207.156C91.1322 206.615 91.5055 206.157 92.0095 205.784C92.5135 205.392 93.0829 205.103 93.7175 204.916C94.3522 204.711 95.0242 204.599 95.7335 204.58C96.4429 204.561 97.1335 204.636 97.8055 204.804C98.6642 204.953 99.3549 205.252 99.8775 205.7C100.4 206.148 100.792 206.689 101.054 207.324C101.334 207.959 101.502 208.659 101.558 209.424C101.614 210.189 101.614 210.964 101.558 211.748C101.427 211.785 101.175 211.823 100.802 211.86C100.447 211.897 100.018 211.935 99.5135 211.972C99.0282 212.009 98.5055 212.037 97.9455 212.056C97.3855 212.075 96.8442 212.084 96.3215 212.084C95.8175 212.084 95.3602 212.075 94.9495 212.056ZM98.2255 208.388C98.0389 208.052 97.7775 207.8 97.4415 207.632C97.2922 207.539 97.1429 207.473 96.9935 207.436C96.8442 207.38 96.6669 207.352 96.4615 207.352C96.0135 207.352 95.6495 207.399 95.3695 207.492C95.0895 207.585 94.8655 207.716 94.6975 207.884C94.5295 208.052 94.3989 208.248 94.3055 208.472C94.2309 208.696 94.1749 208.929 94.1375 209.172C94.1002 209.377 94.0815 209.527 94.0815 209.62C94.1002 209.695 94.1935 209.751 94.3615 209.788C94.5295 209.807 94.7909 209.816 95.1455 209.816C95.5189 209.797 96.0602 209.788 96.7695 209.788C97.2549 209.788 97.6189 209.797 97.8615 209.816C98.1042 209.835 98.2722 209.844 98.3655 209.844C98.4775 209.825 98.5335 209.797 98.5335 209.76C98.5335 209.704 98.5335 209.601 98.5335 209.452C98.5335 209.079 98.4309 208.724 98.2255 208.388ZM106.943 205.7C106.962 205.756 106.971 205.849 106.971 205.98C107.046 205.943 107.214 205.868 107.475 205.756C107.755 205.644 108.026 205.541 108.287 205.448C108.642 205.336 109.043 205.252 109.491 205.196C109.939 205.121 110.359 205.075 110.751 205.056C111.143 205.037 111.47 205.037 111.731 205.056C112.011 205.056 112.151 205.065 112.151 205.084C112.151 205.719 112.142 206.279 112.123 206.764C112.123 207.249 112.123 207.688 112.123 208.08C112.123 208.453 112.123 208.799 112.123 209.116C112.123 209.433 112.132 209.732 112.151 210.012L111.899 209.928C111.806 209.891 111.703 209.863 111.591 209.844C111.498 209.807 111.404 209.769 111.311 209.732C111.087 209.676 110.854 209.629 110.611 209.592C110.387 209.555 110.266 209.536 110.247 209.536C109.743 209.48 109.276 209.452 108.847 209.452C108.436 209.452 108.072 209.517 107.755 209.648C107.456 209.779 107.223 209.984 107.055 210.264C106.887 210.544 106.812 210.945 106.831 211.468C106.85 212.121 106.868 212.737 106.887 213.316C106.906 213.895 106.915 214.483 106.915 215.08C106.915 215.659 106.915 216.256 106.915 216.872C106.934 217.469 106.943 218.113 106.943 218.804V218.916C106.626 219.009 106.336 219.065 106.075 219.084C105.814 219.103 105.543 219.103 105.263 219.084C104.983 219.084 104.675 219.075 104.339 219.056C104.022 219.037 103.639 219.047 103.191 219.084C103.191 216.788 103.163 214.492 103.107 212.196C103.07 209.9 103.088 207.52 103.163 205.056C103.387 205.075 103.574 205.093 103.723 205.112C103.872 205.112 104.012 205.112 104.143 205.112C104.274 205.112 104.414 205.112 104.563 205.112C104.712 205.093 104.899 205.075 105.123 205.056C105.198 205.056 105.328 205.047 105.515 205.028C105.72 205.009 105.926 204.991 106.131 204.972C106.355 204.953 106.542 204.953 106.691 204.972C106.859 204.972 106.943 204.991 106.943 205.028C106.943 205.177 106.943 205.289 106.943 205.364C106.943 205.439 106.943 205.504 106.943 205.56C106.943 205.597 106.943 205.644 106.943 205.7ZM116.412 213.764C116.412 213.633 116.412 213.521 116.412 213.428L116.468 212.364C116.561 211.767 116.673 211.197 116.804 210.656C116.953 210.096 117.205 209.555 117.56 209.032C117.765 208.64 118.073 208.183 118.484 207.66C118.913 207.119 119.277 206.587 119.576 206.064C119.874 205.541 120.014 205.056 119.996 204.608C119.977 204.16 119.632 203.815 118.96 203.572C118.53 203.385 118.194 203.348 117.952 203.46C117.728 203.553 117.532 203.712 117.364 203.936C117.196 204.141 117.037 204.365 116.888 204.608C116.738 204.851 116.542 205.019 116.3 205.112C115.721 205.168 115.142 205.177 114.564 205.14C114.004 205.103 113.444 205.075 112.884 205.056V205.028C112.921 204.319 113.08 203.628 113.36 202.956C113.64 202.265 114.022 201.649 114.508 201.108C114.993 200.567 115.562 200.128 116.216 199.792C116.869 199.437 117.597 199.241 118.4 199.204C119.258 199.129 120.07 199.213 120.836 199.456C121.62 199.699 122.292 200.072 122.852 200.576C123.43 201.08 123.869 201.687 124.168 202.396C124.466 203.105 124.569 203.871 124.476 204.692C124.401 205.289 124.242 205.831 124 206.316C123.757 206.801 123.477 207.249 123.16 207.66C122.861 208.071 122.572 208.407 122.292 208.668C122.03 208.911 121.76 209.219 121.48 209.592C121.088 210.133 120.789 210.675 120.584 211.216C120.397 211.757 120.238 212.355 120.108 213.008C120.07 213.157 120.033 213.316 119.996 213.484C119.958 213.652 119.958 213.811 119.996 213.96V213.988C119.417 214.063 118.838 214.081 118.26 214.044C117.7 214.007 117.13 214.007 116.552 214.044H116.524C116.449 213.969 116.412 213.876 116.412 213.764ZM119.744 219H119.688L116.524 218.972H116.44C116.402 218.767 116.374 218.505 116.356 218.188C116.356 217.871 116.356 217.553 116.356 217.236C116.374 216.919 116.384 216.62 116.384 216.34C116.402 216.06 116.412 215.855 116.412 215.724C116.598 215.649 116.86 215.593 117.196 215.556C117.55 215.519 117.905 215.5 118.26 215.5C118.614 215.5 118.941 215.519 119.24 215.556C119.557 215.575 119.781 215.612 119.912 215.668C119.912 215.687 119.902 215.845 119.884 216.144C119.865 216.424 119.846 216.751 119.828 217.124C119.809 217.497 119.79 217.861 119.772 218.216C119.753 218.571 119.744 218.813 119.744 218.944V218.972V219Z" fill="white"/>
<circle cx="41" cy="258" r="8" fill="#3B2A0F"/>
<circle cx="61" cy="258" r="8" fill="#3B2A0F"/>
<circle cx="44" cy="241" r="8" fill="#3B2A0F"/>
<circle cx="118" cy="239" r="8" fill="#3B2A0F"/>
<circle cx="100" cy="259" r="8" fill="#3B2A0F"/>
<ellipse cx="133.5" cy="259" rx="7.5" ry="8" fill="#3B2A0F"/>
<circle cx="136" cy="242" r="8" fill="#3B2A0F"/>
<circle cx="99" cy="242" r="8" fill="#3B2A0F"/>
<circle cx="80" cy="260" r="8" fill="#3B2A0F"/>
<circle cx="80" cy="242" r="8" fill="#3B2A0F"/>
<circle cx="117" cy="259" r="8" fill="#3B2A0F"/>
<circle cx="61" cy="241" r="8" fill="#3B2A0F"/>
<mask id="path-18-inside-1_168_248" fill="white">
<ellipse cx="125.357" cy="73.7707" rx="32.5248" ry="2.67865" transform="rotate(-2.52013 125.357 73.7707)"/>
</mask>
<path d="M148.859 72.7363C148.688 68.8591 150.983 66.5444 151.724 65.8873C152.588 65.1213 153.353 64.7779 153.49 64.7156C153.852 64.5511 153.881 64.5893 153.236 64.7447C152.086 65.0215 150.103 65.3657 147.284 65.7232C141.739 66.4266 133.886 67.0678 125.079 67.4555L125.87 85.4381C135.008 85.0359 143.376 84.363 149.549 83.5802C152.589 83.1947 155.339 82.7528 157.449 82.2445C158.434 82.0074 159.726 81.6533 160.938 81.1023C161.5 80.8468 162.587 80.3115 163.665 79.3559C164.62 78.509 167.02 76.0068 166.841 71.9449L148.859 72.7363ZM125.079 67.4555C116.271 67.8431 108.393 67.8942 102.807 67.6808C99.9679 67.5723 97.9622 67.4037 96.7927 67.2289C96.1363 67.1308 96.1621 67.0902 96.5372 67.2223C96.6791 67.2722 97.4713 67.5471 98.3992 68.2343C99.1952 68.8237 101.684 70.9279 101.855 74.8051L83.8721 75.5966C84.0509 79.6586 86.6614 81.9402 87.6872 82.6999C88.8449 83.5572 89.9749 83.9948 90.5574 84.1999C91.8134 84.6424 93.1308 84.8816 94.1327 85.0313C96.2799 85.3521 99.0582 85.5507 102.12 85.6677C108.337 85.9052 116.732 85.8403 125.87 85.4381L125.079 67.4555ZM101.855 74.8051C102.025 78.6824 99.731 80.997 98.9898 81.6541C98.1259 82.4201 97.3609 82.7635 97.2239 82.8258C96.8619 82.9903 96.8327 82.9521 97.4779 82.7967C98.6275 82.5199 100.611 82.1757 103.43 81.8182C108.975 81.1149 116.827 80.4736 125.635 80.0859L124.843 62.1034C115.705 62.5056 107.337 63.1784 101.165 63.9612C98.1249 64.3468 95.3749 64.7887 93.2641 65.2969C92.2792 65.5341 90.988 65.8881 89.7757 66.4391C89.2135 66.6946 88.1263 67.2299 87.0484 68.1856C86.0933 69.0324 83.6933 71.5346 83.8721 75.5966L101.855 74.8051ZM125.635 80.0859C134.442 79.6983 142.321 79.6472 147.906 79.8606C150.746 79.9691 152.751 80.1378 153.921 80.3125C154.577 80.4106 154.551 80.4513 154.176 80.3192C154.034 80.2692 153.242 79.9943 152.314 79.3072C151.518 78.7177 149.029 76.6136 148.859 72.7363L166.841 71.9449C166.663 67.8829 164.052 65.6012 163.026 64.8416C161.869 63.9843 160.739 63.5466 160.156 63.3415C158.9 62.8991 157.583 62.6599 156.581 62.5101C154.434 62.1893 151.655 61.9907 148.593 61.8738C142.376 61.6362 133.981 61.7012 124.843 62.1034L125.635 80.0859Z" fill="#445670" mask="url(#path-18-inside-1_168_248)"/>
<ellipse cx="159.754" cy="9.68971" rx="9.70089" ry="5.63214" transform="rotate(28.1936 159.754 9.68971)" fill="#445670"/>
</svg>
