<svg id="visual" viewBox="0 0 1512 982" width="1512" height="982" xmlns="http://www.w3.org/2000/svg" xmlns:xlink="http://www.w3.org/1999/xlink" version="1.1"><rect x="0" y="0" width="1512" height="982" fill="#fdf0e5"></rect><path d="M0 904L25.2 902.8C50.3 901.7 100.7 899.3 151 899.3C201.3 899.3 251.7 901.7 302.2 904C352.7 906.3 403.3 908.7 453.8 910.7C504.3 912.7 554.7 914.3 605 911.8C655.3 909.3 705.7 902.7 756 902.3C806.3 902 856.7 908 907 909C957.3 910 1007.7 906 1058.2 904.3C1108.7 902.7 1159.3 903.3 1209.8 904.2C1260.3 905 1310.7 906 1361 905.3C1411.3 904.7 1461.7 902.3 1486.8 901.2L1512 900L1512 983L1486.8 983C1461.7 983 1411.3 983 1361 983C1310.7 983 1260.3 983 1209.8 983C1159.3 983 1108.7 983 1058.2 983C1007.7 983 957.3 983 907 983C856.7 983 806.3 983 756 983C705.7 983 655.3 983 605 983C554.7 983 504.3 983 453.8 983C403.3 983 352.7 983 302.2 983C251.7 983 201.3 983 151 983C100.7 983 50.3 983 25.2 983L0 983Z" fill="#9f6d49"></path><path d="M0 927L25.2 925.3C50.3 923.7 100.7 920.3 151 917.7C201.3 915 251.7 913 302.2 913C352.7 913 403.3 915 453.8 917.5C504.3 920 554.7 923 605 923.2C655.3 923.3 705.7 920.7 756 919.3C806.3 918 856.7 918 907 918C957.3 918 1007.7 918 1058.2 918.8C1108.7 919.7 1159.3 921.3 1209.8 923C1260.3 924.7 1310.7 926.3 1361 926.8C1411.3 927.3 1461.7 926.7 1486.8 926.3L1512 926L1512 983L1486.8 983C1461.7 983 1411.3 983 1361 983C1310.7 983 1260.3 983 1209.8 983C1159.3 983 1108.7 983 1058.2 983C1007.7 983 957.3 983 907 983C856.7 983 806.3 983 756 983C705.7 983 655.3 983 605 983C554.7 983 504.3 983 453.8 983C403.3 983 352.7 983 302.2 983C251.7 983 201.3 983 151 983C100.7 983 50.3 983 25.2 983L0 983Z" fill="#b78763"></path><path d="M0 925L25.2 928C50.3 931 100.7 937 151 937.3C201.3 937.7 251.7 932.3 302.2 931.2C352.7 930 403.3 933 453.8 933.2C504.3 933.3 554.7 930.7 605 930.3C655.3 930 705.7 932 756 934.8C806.3 937.7 856.7 941.3 907 941.5C957.3 941.7 1007.7 938.3 1058.2 937.8C1108.7 937.3 1159.3 939.7 1209.8 939.3C1260.3 939 1310.7 936 1361 935.2C1411.3 934.3 1461.7 935.7 1486.8 936.3L1512 937L1512 983L1486.8 983C1461.7 983 1411.3 983 1361 983C1310.7 983 1260.3 983 1209.8 983C1159.3 983 1108.7 983 1058.2 983C1007.7 983 957.3 983 907 983C856.7 983 806.3 983 756 983C705.7 983 655.3 983 605 983C554.7 983 504.3 983 453.8 983C403.3 983 352.7 983 302.2 983C251.7 983 201.3 983 151 983C100.7 983 50.3 983 25.2 983L0 983Z" fill="#cfa17e"></path><path d="M0 950L25.2 949.8C50.3 949.7 100.7 949.3 151 948C201.3 946.7 251.7 944.3 302.2 943.7C352.7 943 403.3 944 453.8 946.2C504.3 948.3 554.7 951.7 605 952.5C655.3 953.3 705.7 951.7 756 951C806.3 950.3 856.7 950.7 907 950.2C957.3 949.7 1007.7 948.3 1058.2 949.3C1108.7 950.3 1159.3 953.7 1209.8 954.3C1260.3 955 1310.7 953 1361 950.3C1411.3 947.7 1461.7 944.3 1486.8 942.7L1512 941L1512 983L1486.8 983C1461.7 983 1411.3 983 1361 983C1310.7 983 1260.3 983 1209.8 983C1159.3 983 1108.7 983 1058.2 983C1007.7 983 957.3 983 907 983C856.7 983 806.3 983 756 983C705.7 983 655.3 983 605 983C554.7 983 504.3 983 453.8 983C403.3 983 352.7 983 302.2 983C251.7 983 201.3 983 151 983C100.7 983 50.3 983 25.2 983L0 983Z" fill="#e7bc9a"></path><path d="M0 963L25.2 964.5C50.3 966 100.7 969 151 970C201.3 971 251.7 970 302.2 968.8C352.7 967.7 403.3 966.3 453.8 966.5C504.3 966.7 554.7 968.3 605 967.2C655.3 966 705.7 962 756 960.8C806.3 959.7 856.7 961.3 907 963.2C957.3 965 1007.7 967 1058.2 966C1108.7 965 1159.3 961 1209.8 960C1260.3 959 1310.7 961 1361 961.8C1411.3 962.7 1461.7 962.3 1486.8 962.2L1512 962L1512 983L1486.8 983C1461.7 983 1411.3 983 1361 983C1310.7 983 1260.3 983 1209.8 983C1159.3 983 1108.7 983 1058.2 983C1007.7 983 957.3 983 907 983C856.7 983 806.3 983 756 983C705.7 983 655.3 983 605 983C554.7 983 504.3 983 453.8 983C403.3 983 352.7 983 302.2 983C251.7 983 201.3 983 151 983C100.7 983 50.3 983 25.2 983L0 983Z" fill="#ffd8b8"></path></svg>